<svg height="740" width="740" xmlns="http://www.w3.org/2000/svg">
<rect width="100%" height="100%" x="0" y="0" style="fill:white;stroke:white;stroke-width:0"/>
<g style="fill:white;stroke:black;stroke-width:1">
<rect width="625" height="625" x="60" y="60"/>
<polygon points="10,95 10,85 30,85 40,95 60,95 40,95 30,105 10,105 10,95"/>
<text x="65" y="85" dominant-baseline="hanging" text-anchor="start" font-size="20" style="fill:black;stroke:black;stroke-width:0">arst_ni</text>
<polygon points="10,145 10,135 30,135 40,145 60,145 40,145 30,155 10,155 10,145"/>
<text x="65" y="135" dominant-baseline="hanging" text-anchor="start" font-size="20" style="fill:black;stroke:black;stroke-width:0">clk_i</text>
<polygon points="10,245 10,235 30,235 40,245 60,245 40,245 30,255 10,255 10,245"/>
<text x="65" y="235" dominant-baseline="hanging" text-anchor="start" font-size="20" style="fill:black;stroke:black;stroke-width:0">int_req_i</text>
<polygon points="10,295 20,285 40,285 40,295 60,295 40,295 40,305 20,305 10,295"/>
<text x="65" y="285" dominant-baseline="hanging" text-anchor="start" font-size="20" style="fill:black;stroke:black;stroke-width:0">int_index_o</text>
<polygon points="10,345 20,335 40,335 40,345 60,345 40,345 40,355 20,355 10,345"/>
<text x="65" y="335" dominant-baseline="hanging" text-anchor="start" font-size="20" style="fill:black;stroke:black;stroke-width:0">int_ack_o</text>
<polygon points="685,95 705,95 705,85 725,85 735,95 725,105 705,105 705,95 685,95"/>
<text x="680" y="85" dominant-baseline="hanging" text-anchor="end" font-size="20" style="fill:black;stroke:black;stroke-width:0">icache_req_o</text>
<polygon points="685,145 705,145 705,135 725,135 735,145 725,155 705,155 705,145 685,145"/>
<text x="680" y="135" dominant-baseline="hanging" text-anchor="end" font-size="20" style="fill:black;stroke:black;stroke-width:0">icache_addr_o</text>
<polygon points="685,195 705,195 715,185 735,185 735,195 735,205 715,205 705,195 685,195"/>
<text x="680" y="185" dominant-baseline="hanging" text-anchor="end" font-size="20" style="fill:black;stroke:black;stroke-width:0">icache_data_i</text>
<polygon points="685,245 705,245 715,235 735,235 735,245 735,255 715,255 705,245 685,245"/>
<text x="680" y="235" dominant-baseline="hanging" text-anchor="end" font-size="20" style="fill:black;stroke:black;stroke-width:0">icache_gnt_i</text>
<polygon points="685,345 705,345 705,335 725,335 735,345 725,355 705,355 705,345 685,345"/>
<text x="680" y="335" dominant-baseline="hanging" text-anchor="end" font-size="20" style="fill:black;stroke:black;stroke-width:0">dcache_req_o</text>
<polygon points="685,395 705,395 705,385 725,385 735,395 725,405 705,405 705,395 685,395"/>
<text x="680" y="385" dominant-baseline="hanging" text-anchor="end" font-size="20" style="fill:black;stroke:black;stroke-width:0">dcache_wr_o</text>
<polygon points="685,445 705,445 705,435 725,435 735,445 725,455 705,455 705,445 685,445"/>
<text x="680" y="435" dominant-baseline="hanging" text-anchor="end" font-size="20" style="fill:black;stroke:black;stroke-width:0">dcache_addr_o</text>
<polygon points="685,495 705,495 705,485 725,485 735,495 725,505 705,505 705,495 685,495"/>
<text x="680" y="485" dominant-baseline="hanging" text-anchor="end" font-size="20" style="fill:black;stroke:black;stroke-width:0">dcache_size_o</text>
<polygon points="685,545 705,545 705,535 725,535 735,545 725,555 705,555 705,545 685,545"/>
<text x="680" y="535" dominant-baseline="hanging" text-anchor="end" font-size="20" style="fill:black;stroke:black;stroke-width:0">dcache_data_o</text>
<polygon points="685,595 705,595 715,585 735,585 735,595 735,605 715,605 705,595 685,595"/>
<text x="680" y="585" dominant-baseline="hanging" text-anchor="end" font-size="20" style="fill:black;stroke:black;stroke-width:0">dcache_data_i</text>
<polygon points="685,645 705,645 715,635 735,635 735,645 735,655 715,655 705,645 685,645"/>
<text x="680" y="635" dominant-baseline="hanging" text-anchor="end" font-size="20" style="fill:black;stroke:black;stroke-width:0">dcache_gnt_i</text>
<text x="370" y="700" dominant-baseline="hanging" text-anchor="middle" font-size="30" style="fill:black;stroke:black;stroke-width:0">rv64g_core</text>
</g>
</svg>
