<svg height="590" width="590" xmlns="http://www.w3.org/2000/svg">
<rect width="100%" height="100%" x="0" y="0" style="fill:white;stroke:white;stroke-width:0"/>
<g style="fill:white;stroke:black;stroke-width:1">
<rect width="475" height="475" x="60" y="60"/>
<polygon points="10,95 10,85 30,85 40,95 60,95 40,95 30,105 10,105 10,95"/>
<text x="65" y="85" dominant-baseline="hanging" text-anchor="start" font-size="20" style="fill:black;stroke:black;stroke-width:0">arst_ni</text>
<polygon points="10,145 10,135 30,135 40,145 60,145 40,145 30,155 10,155 10,145"/>
<text x="65" y="135" dominant-baseline="hanging" text-anchor="start" font-size="20" style="fill:black;stroke:black;stroke-width:0">clk_i</text>
<polygon points="10,195 10,185 30,185 40,195 60,195 40,195 30,205 10,205 10,195"/>
<text x="65" y="185" dominant-baseline="hanging" text-anchor="start" font-size="20" style="fill:black;stroke:black;stroke-width:0">clear_i</text>
<polygon points="10,295 10,285 30,285 40,295 60,295 40,295 30,305 10,305 10,295"/>
<text x="65" y="285" dominant-baseline="hanging" text-anchor="start" font-size="20" style="fill:black;stroke:black;stroke-width:0">instr_in_i</text>
<polygon points="10,345 10,335 30,335 40,345 60,345 40,345 30,355 10,355 10,345"/>
<text x="65" y="335" dominant-baseline="hanging" text-anchor="start" font-size="20" style="fill:black;stroke:black;stroke-width:0">instr_in_valid_i</text>
<polygon points="10,395 20,385 40,385 40,395 60,395 40,395 40,405 20,405 10,395"/>
<text x="65" y="385" dominant-baseline="hanging" text-anchor="start" font-size="20" style="fill:black;stroke:black;stroke-width:0">instr_in_ready_o</text>
<polygon points="10,495 10,485 30,485 40,495 60,495 40,495 30,505 10,505 10,495"/>
<text x="65" y="485" dominant-baseline="hanging" text-anchor="start" font-size="20" style="fill:black;stroke:black;stroke-width:0">locks_i</text>
<polygon points="535,395 555,395 555,385 575,385 585,395 575,405 555,405 555,395 535,395"/>
<text x="530" y="385" dominant-baseline="hanging" text-anchor="end" font-size="20" style="fill:black;stroke:black;stroke-width:0">instr_out_o</text>
<polygon points="535,445 555,445 555,435 575,435 585,445 575,455 555,455 555,445 535,445"/>
<text x="530" y="435" dominant-baseline="hanging" text-anchor="end" font-size="20" style="fill:black;stroke:black;stroke-width:0">instr_out_valid_o</text>
<polygon points="535,495 555,495 565,485 585,485 585,495 585,505 565,505 555,495 535,495"/>
<text x="530" y="485" dominant-baseline="hanging" text-anchor="end" font-size="20" style="fill:black;stroke:black;stroke-width:0">instr_out_ready_i</text>
<text x="295" y="550" dominant-baseline="hanging" text-anchor="middle" font-size="30" style="fill:black;stroke:black;stroke-width:0">rv64g_instr_launcher</text>
</g>
</svg>
